<svg width="954" height="649" viewBox="0 0 954 649" fill="none" xmlns="http://www.w3.org/2000/svg">
<g opacity="0.79">
<path d="M133.648 253.141L195.252 215.368C173.108 228.964 157.695 259.312 149.339 278.709C113.686 365.393 114.197 476.531 126.128 511.427L64.5238 549.246C52.5466 514.35 52.036 403.166 87.7355 316.529C96.1381 297.086 111.504 266.737 133.648 253.141Z" fill="url(#paint0_linear)"/>
<path d="M133.648 253.141L195.252 215.368C173.108 228.964 157.695 259.312 149.339 278.709C113.686 365.393 114.197 476.531 126.128 511.427L64.5238 549.246C52.5466 514.35 52.036 403.166 87.7355 316.529C96.1381 297.086 111.504 266.737 133.648 253.141Z" fill="url(#paint1_linear)"/>
<path d="M155.08 568.458L93.4766 606.278C124.627 587.159 163.111 534.954 230.843 441.125C251.919 411.333 274.527 379.454 298.714 346.692L360.317 308.873C336.177 341.634 313.384 373.514 292.493 403.305C224.576 497.135 186.23 549.339 155.08 568.458Z" fill="url(#paint2_linear)"/>
<path d="M155.08 568.458L93.4766 606.278C124.627 587.159 163.111 534.954 230.843 441.125C251.919 411.333 274.527 379.454 298.714 346.692L360.317 308.873C336.177 341.634 313.384 373.514 292.493 403.305C224.576 497.135 186.23 549.339 155.08 568.458Z" fill="url(#paint3_linear)"/>
<path d="M100.461 198.291L162.065 160.472C179.026 149.91 198.996 145.229 218.887 147.154C248.598 149.752 285.504 175.321 343.719 223.721L282.115 261.633C223.715 213.094 186.994 187.386 157.237 184.973C137.362 183.059 117.409 187.739 100.461 198.291Z" fill="url(#paint4_linear)"/>
<path d="M100.461 198.291L162.065 160.472C179.026 149.91 198.996 145.229 218.887 147.154C248.598 149.752 285.504 175.321 343.719 223.721L282.115 261.633C223.715 213.094 186.785 187.749 157.237 184.973C137.362 183.059 117.409 187.739 100.461 198.291Z" fill="url(#paint5_linear)"/>
<path d="M397.628 269.011L392.104 264.371L330.5 302.144L336.024 306.784C463.828 416.066 638.518 565.07 800.257 582.147L861.861 544.328C700.122 527.297 525.431 378.34 397.628 269.011Z" fill="url(#paint6_linear)"/>
<path d="M800.254 582.151L861.848 544.332L865.19 605.488L803.55 643.261L800.254 582.151Z" fill="url(#paint7_linear)"/>
<path d="M604.072 28.5003L665.676 -9.31909C566.098 52.0273 472.462 158.757 392.289 264.327L330.5 302.146C410.859 196.716 504.494 89.6147 604.072 28.5003Z" fill="url(#paint8_linear)"/>
<path d="M604.072 28.5003L665.676 -9.31909C566.098 52.0273 472.462 158.757 392.289 264.327L330.5 302.146C410.859 196.716 504.494 89.6147 604.072 28.5003Z" fill="url(#paint9_linear)"/>
<path d="M1023.64 524.791L961.897 562.471C931.304 581.033 894.072 590.314 850.109 586.648L911.713 548.828C955.676 552.819 992.954 543.538 1023.64 524.791Z" fill="url(#paint10_linear)"/>
<path d="M1023.64 524.791L961.897 562.471C931.304 581.033 894.072 590.314 850.109 586.648L911.713 548.828C955.676 552.819 992.954 543.538 1023.64 524.791Z" fill="url(#paint11_linear)"/>
<path d="M1032.04 53.6493C1087.66 127.654 1119.62 216.727 1123.73 309.197C1133.29 485.534 1041.84 664.375 853.406 647.948L850.397 586.739C1003.46 598.672 1074.99 454.812 1066.82 304.137C1063.63 226.281 1036.71 151.297 990.122 88.8237C964.253 56.3351 932.109 29.3809 895.604 9.56529C864.388 -7.45609 830.035 -17.955 794.634 -21.2935C791.013 -21.6029 787.392 -21.8349 783.771 -21.9896C618.69 -36.4213 457.972 134.95 330.494 302.144L336.019 306.784C463.822 416.066 638.512 565.07 800.251 582.147L803.547 643.261C623.286 624.05 439.45 467.204 305.89 352.725L298.694 346.692C274.508 379.407 251.946 411.287 230.823 441.125C139.695 567.112 101.86 618.157 63.0962 614.584C41.8808 612.727 5.8099 595.094 0.564076 498.573C-5.42452 387.853 35.5672 174.3 157.289 184.973C187.046 187.572 223.767 213.094 282.168 261.633C417.12 84.5081 590.697 -99.7167 780.243 -83.1504C784.173 -82.9647 788.119 -82.7018 792.081 -82.3615C835.872 -78.2147 878.345 -65.1211 916.866 -43.8924C961.413 -19.4264 1000.58 13.7452 1032.04 53.6493ZM181.8 399.779C203.202 370.451 224.417 338.757 249.021 306.32C209.84 273.837 174.744 247.619 160.817 246.366C123.725 243.118 99.2135 290.032 87.7469 316.529C52.0939 403.212 52.6045 514.351 64.5353 549.247C88.5826 530.963 137.838 461.728 181.708 399.825" fill="url(#paint12_linear)"/>
<path d="M1185.32 271.424C1181.21 178.954 1149.25 89.881 1093.63 15.8762C1062.18 -23.9895 1023.03 -57.1287 978.504 -81.5726C939.98 -102.856 897.49 -115.997 853.672 -120.181C849.742 -120.521 845.796 -120.784 841.834 -120.97C769.228 -127.281 698.943 -104.171 632.279 -63.2894L570.676 -25.4699C637.34 -66.3521 707.578 -89.5078 780.23 -83.1504C784.161 -82.9648 788.107 -82.7018 792.068 -82.3615C835.86 -78.2148 878.333 -65.1212 916.854 -43.8924C961.375 -19.4485 1000.53 13.6907 1031.98 53.5565C1087.6 127.561 1119.56 216.634 1123.67 309.105C1130.45 434.071 1086.53 560.151 993.685 617.229L1055.29 579.409C1148.23 522.425 1192.1 396.344 1185.32 271.424Z" fill="url(#paint13_linear)"/>
</g>
<defs>
<linearGradient id="paint0_linear" x1="57.1914" y1="382.307" x2="195.252" y2="382.307" gradientUnits="userSpaceOnUse">
<stop stop-color="#6FB2CF"/>
<stop offset="1" stop-color="#98EDFF"/>
</linearGradient>
<linearGradient id="paint1_linear" x1="57.1914" y1="382.307" x2="195.252" y2="382.307" gradientUnits="userSpaceOnUse">
<stop stop-color="#6FB2CF"/>
<stop offset="1" stop-color="#98EDFF"/>
</linearGradient>
<linearGradient id="paint2_linear" x1="93.4766" y1="457.575" x2="360.317" y2="457.575" gradientUnits="userSpaceOnUse">
<stop stop-color="#6FB2CF"/>
<stop offset="1" stop-color="#98EDFF"/>
</linearGradient>
<linearGradient id="paint3_linear" x1="93.4766" y1="457.575" x2="360.317" y2="457.575" gradientUnits="userSpaceOnUse">
<stop stop-color="#6FB2CF"/>
<stop offset="1" stop-color="#98EDFF"/>
</linearGradient>
<linearGradient id="paint4_linear" x1="100.461" y1="204.182" x2="343.719" y2="204.182" gradientUnits="userSpaceOnUse">
<stop stop-color="#6FB2CF"/>
<stop offset="1" stop-color="#98EDFF"/>
</linearGradient>
<linearGradient id="paint5_linear" x1="100.461" y1="204.182" x2="343.719" y2="204.182" gradientUnits="userSpaceOnUse">
<stop stop-color="#6FB2CF"/>
<stop offset="1" stop-color="#98EDFF"/>
</linearGradient>
<linearGradient id="paint6_linear" x1="330.5" y1="423.259" x2="861.861" y2="423.259" gradientUnits="userSpaceOnUse">
<stop stop-color="#6FB2CF"/>
<stop offset="1" stop-color="#98EDFF"/>
</linearGradient>
<linearGradient id="paint7_linear" x1="800.254" y1="593.796" x2="865.19" y2="593.796" gradientUnits="userSpaceOnUse">
<stop stop-color="#6FB2CF"/>
<stop offset="1" stop-color="#98EDFF"/>
</linearGradient>
<linearGradient id="paint8_linear" x1="330.5" y1="146.414" x2="665.676" y2="146.414" gradientUnits="userSpaceOnUse">
<stop stop-color="#6FB2CF"/>
<stop offset="1" stop-color="#98EDFF"/>
</linearGradient>
<linearGradient id="paint9_linear" x1="330.5" y1="146.414" x2="665.676" y2="146.414" gradientUnits="userSpaceOnUse">
<stop stop-color="#6FB2CF"/>
<stop offset="1" stop-color="#98EDFF"/>
</linearGradient>
<linearGradient id="paint10_linear" x1="850.109" y1="556.114" x2="1023.64" y2="556.114" gradientUnits="userSpaceOnUse">
<stop stop-color="#6FB2CF"/>
<stop offset="1" stop-color="#98EDFF"/>
</linearGradient>
<linearGradient id="paint11_linear" x1="850.109" y1="556.114" x2="1023.64" y2="556.114" gradientUnits="userSpaceOnUse">
<stop stop-color="#6FB2CF"/>
<stop offset="1" stop-color="#98EDFF"/>
</linearGradient>
<linearGradient id="paint12_linear" x1="0" y1="282.405" x2="1124.41" y2="282.405" gradientUnits="userSpaceOnUse">
<stop stop-color="#6FB2CF"/>
<stop offset="1" stop-color="#98EDFF"/>
</linearGradient>
<linearGradient id="paint13_linear" x1="570.676" y1="247.615" x2="1186" y2="247.615" gradientUnits="userSpaceOnUse">
<stop stop-color="#6FB2CF"/>
<stop offset="1" stop-color="#98EDFF"/>
</linearGradient>
</defs>
</svg>
