<svg width="22" height="24" viewBox="0 0 22 24" fill="none" xmlns="http://www.w3.org/2000/svg">
<path fill-rule="evenodd" clip-rule="evenodd" d="M1 8.5C1 6.29086 2.79086 4.5 5 4.5H17C19.2091 4.5 21 6.29086 21 8.5V18.5C21 20.7091 19.2091 22.5 17 22.5H5C2.79086 22.5 1 20.7091 1 18.5V8.5Z" stroke="#1D2069" stroke-width="1.7" stroke-linecap="round" stroke-linejoin="round"/>
<rect x="4" y="10.5" width="14" height="1.5" rx="0.75" fill="#1D2069"/>
<rect x="4" y="14.5" width="6" height="1.5" rx="0.75" fill="#1D2069"/>
<rect x="12" y="14.5" width="6" height="1.5" rx="0.75" fill="#1D2069"/>
<rect x="4" y="17.5" width="6" height="1.5" rx="0.75" fill="#1D2069"/>
<rect x="12" y="17.5" width="6" height="1.5" rx="0.75" fill="#1D2069"/>
<mask id="path-7-outside-1" maskUnits="userSpaceOnUse" x="4.5" y="0.5" width="5" height="6" fill="black">
<rect fill="white" x="4.5" y="0.5" width="5" height="6"/>
<path fill-rule="evenodd" clip-rule="evenodd" d="M7 4.5V2.5Z"/>
</mask>
<path d="M5.2 4.5C5.2 5.49411 6.00589 6.3 7 6.3C7.99411 6.3 8.8 5.49411 8.8 4.5H5.2ZM8.8 2.5C8.8 1.50589 7.99411 0.7 7 0.7C6.00589 0.7 5.2 1.50589 5.2 2.5H8.8ZM8.8 4.5V2.5H5.2V4.5H8.8Z" fill="#1D2069" mask="url(#path-7-outside-1)"/>
<mask id="path-9-outside-2" maskUnits="userSpaceOnUse" x="12.5" y="0.5" width="5" height="6" fill="black">
<rect fill="white" x="12.5" y="0.5" width="5" height="6"/>
<path fill-rule="evenodd" clip-rule="evenodd" d="M15 4.5V2.5Z"/>
</mask>
<path d="M13.2 4.5C13.2 5.49411 14.0059 6.3 15 6.3C15.9941 6.3 16.8 5.49411 16.8 4.5H13.2ZM16.8 2.5C16.8 1.50589 15.9941 0.7 15 0.7C14.0059 0.7 13.2 1.50589 13.2 2.5H16.8ZM16.8 4.5V2.5H13.2V4.5H16.8Z" fill="#1D2069" mask="url(#path-9-outside-2)"/>
</svg>
