<svg width="17" height="12" viewBox="0 0 17 12" fill="none" xmlns="http://www.w3.org/2000/svg">
<path d="M12.8751 5.9832L13.625 5.98997L12.1251 5.9832H12.8751ZM13.4597 4.64521L12.9452 4.09951L12.9452 4.09951L13.4597 4.64521ZM14.2998 3.85307L14.8143 4.39876L14.8143 4.39876L14.2998 3.85307ZM14.2998 8.14701L14.8143 7.60132L14.8143 7.60132L14.2998 8.14701ZM13.4597 7.35487L12.9452 7.90056L12.9452 7.90056L13.4597 7.35487ZM12.8751 6.01688H12.1251L13.625 6.01011L12.8751 6.01688ZM12.1251 4C12.1251 2.75736 11.1177 1.75 9.87508 1.75V0.25C11.9461 0.25 13.6251 1.92893 13.6251 4H12.1251ZM12.1251 5.9832V4H13.6251V5.9832H12.1251ZM13.9742 5.1909C13.7538 5.39871 13.6278 5.68735 13.625 5.98997L12.1251 5.97642C12.1315 5.26558 12.4274 4.58764 12.9452 4.09951L13.9742 5.1909ZM14.8143 4.39876L13.9742 5.1909L12.9452 4.09951L13.7853 3.30738L14.8143 4.39876ZM15.25 4.58677C15.25 4.3602 14.9792 4.24333 14.8143 4.39876L13.7853 3.30738C14.9071 2.24971 16.75 3.04501 16.75 4.58677H15.25ZM15.25 7.4133V4.58677H16.75V7.4133H15.25ZM14.8143 7.60132C14.9792 7.75675 15.25 7.63987 15.25 7.4133H16.75C16.75 8.95507 14.9071 9.75037 13.7853 8.6927L14.8143 7.60132ZM13.9742 6.80918L14.8143 7.60132L13.7853 8.6927L12.9452 7.90056L13.9742 6.80918ZM13.625 6.01011C13.6278 6.31273 13.7538 6.60136 13.9742 6.80918L12.9452 7.90056C12.4274 7.41243 12.1315 6.7345 12.1251 6.02365L13.625 6.01011ZM12.1251 8V6.01688H13.6251V8H12.1251ZM9.87508 10.25C11.1177 10.25 12.1251 9.24264 12.1251 8H13.6251C13.6251 10.0711 11.9461 11.75 9.87508 11.75V10.25ZM4.00008 10.25H9.87508V11.75H4.00008V10.25ZM1.75008 8C1.75008 9.24264 2.75744 10.25 4.00008 10.25V11.75C1.92901 11.75 0.250076 10.0711 0.250076 8H1.75008ZM1.75008 4V8H0.250076V4H1.75008ZM4.00008 1.75C2.75744 1.75 1.75008 2.75736 1.75008 4H0.250076C0.250076 1.92893 1.92901 0.25 4.00008 0.25V1.75ZM9.87508 1.75H4.00008V0.25H9.87508V1.75Z" fill="#1D2069"/>
</svg>
