<svg width="16" height="16" viewBox="0 0 16 16" fill="none" xmlns="http://www.w3.org/2000/svg">
<path d="M7.20322 12.226C6.30322 12.226 5.57722 11.92 5.02522 11.308C4.48522 10.696 4.21522 9.874 4.21522 8.842C4.21522 7.606 4.55122 6.55 5.22322 5.674C5.89522 4.786 6.74122 4.342 7.76122 4.342C8.22922 4.342 8.64322 4.45 9.00322 4.666C9.36322 4.87 9.60922 5.152 9.74122 5.512H9.81322L9.95722 4.666H12.0452L11.3612 9.616C11.2532 10.444 11.5112 10.858 12.1352 10.858C12.6272 10.858 13.0412 10.576 13.3772 10.012C13.7252 9.436 13.8992 8.656 13.8992 7.672C13.8992 6.052 13.4132 4.72 12.4412 3.676C11.4812 2.62 10.0712 2.092 8.21122 2.092C6.50722 2.092 5.07322 2.698 3.90922 3.91C2.75722 5.11 2.18122 6.646 2.18122 8.518C2.18122 10.354 2.76322 11.824 3.92722 12.928C5.09122 14.032 6.54322 14.584 8.28322 14.584C9.79522 14.584 11.0732 14.14 12.1172 13.252L12.7472 14.26C12.3392 14.704 11.6852 15.082 10.7852 15.394C9.89722 15.718 9.02722 15.88 8.17522 15.88C6.81922 15.88 5.58922 15.598 4.48522 15.034C3.38122 14.482 2.48722 13.648 1.80322 12.532C1.11922 11.404 0.777219 10.096 0.777219 8.608C0.777219 7.036 1.12522 5.644 1.82122 4.432C2.52922 3.22 3.44122 2.308 4.55722 1.696C5.67322 1.072 6.89122 0.76 8.21122 0.76C10.3232 0.76 12.0392 1.396 13.3592 2.668C14.6792 3.928 15.3392 5.56 15.3392 7.564C15.3392 8.944 14.9912 10.066 14.2952 10.93C13.6112 11.794 12.7052 12.226 11.5772 12.226C11.0252 12.226 10.5692 12.1 10.2092 11.848C9.86122 11.596 9.65722 11.236 9.59722 10.768H9.54322C9.38722 11.176 9.08122 11.524 8.62522 11.812C8.18122 12.088 7.70722 12.226 7.20322 12.226ZM7.70722 10.498C8.30722 10.498 8.78122 10.24 9.12922 9.724C9.47722 9.208 9.65122 8.608 9.65122 7.924C9.65122 7.36 9.51322 6.916 9.23722 6.592C8.97322 6.256 8.60122 6.088 8.12122 6.088C7.53322 6.088 7.05922 6.346 6.69922 6.862C6.35122 7.378 6.17722 7.978 6.17722 8.662C6.17722 9.214 6.31522 9.658 6.59122 9.994C6.86722 10.33 7.23922 10.498 7.70722 10.498Z" fill="#1D2069"/>
</svg>
