<svg width="36" height="36" viewBox="0 0 36 36" fill="none" xmlns="http://www.w3.org/2000/svg">
<rect x="0.5" y="0.5" width="35" height="35" rx="7.5" fill="white" stroke="#1D2069" stroke-linecap="round" stroke-linejoin="round"/>
<path d="M16.754 22.226C15.854 22.226 15.128 21.92 14.576 21.308C14.036 20.696 13.766 19.874 13.766 18.842C13.766 17.606 14.102 16.55 14.774 15.674C15.446 14.786 16.292 14.342 17.312 14.342C17.78 14.342 18.194 14.45 18.554 14.666C18.914 14.87 19.16 15.152 19.292 15.512H19.364L19.508 14.666H21.596L20.912 19.616C20.804 20.444 21.062 20.858 21.686 20.858C22.178 20.858 22.592 20.576 22.928 20.012C23.276 19.436 23.45 18.656 23.45 17.672C23.45 16.052 22.964 14.72 21.992 13.676C21.032 12.62 19.622 12.092 17.762 12.092C16.058 12.092 14.624 12.698 13.46 13.91C12.308 15.11 11.732 16.646 11.732 18.518C11.732 20.354 12.314 21.824 13.478 22.928C14.642 24.032 16.094 24.584 17.834 24.584C19.346 24.584 20.624 24.14 21.668 23.252L22.298 24.26C21.89 24.704 21.236 25.082 20.336 25.394C19.448 25.718 18.578 25.88 17.726 25.88C16.37 25.88 15.14 25.598 14.036 25.034C12.932 24.482 12.038 23.648 11.354 22.532C10.67 21.404 10.328 20.096 10.328 18.608C10.328 17.036 10.676 15.644 11.372 14.432C12.08 13.22 12.992 12.308 14.108 11.696C15.224 11.072 16.442 10.76 17.762 10.76C19.874 10.76 21.59 11.396 22.91 12.668C24.23 13.928 24.89 15.56 24.89 17.564C24.89 18.944 24.542 20.066 23.846 20.93C23.162 21.794 22.256 22.226 21.128 22.226C20.576 22.226 20.12 22.1 19.76 21.848C19.412 21.596 19.208 21.236 19.148 20.768H19.094C18.938 21.176 18.632 21.524 18.176 21.812C17.732 22.088 17.258 22.226 16.754 22.226ZM17.258 20.498C17.858 20.498 18.332 20.24 18.68 19.724C19.028 19.208 19.202 18.608 19.202 17.924C19.202 17.36 19.064 16.916 18.788 16.592C18.524 16.256 18.152 16.088 17.672 16.088C17.084 16.088 16.61 16.346 16.25 16.862C15.902 17.378 15.728 17.978 15.728 18.662C15.728 19.214 15.866 19.658 16.142 19.994C16.418 20.33 16.79 20.498 17.258 20.498Z" fill="#1D2069"/>
</svg>
