<svg width="21" height="20" viewBox="0 0 21 20" fill="none" xmlns="http://www.w3.org/2000/svg">
<path d="M6.43755 10.7143V11.4643H6.36164L6.28727 11.4491L6.43755 10.7143ZM13.5625 10.7143L13.7128 11.4491L13.6385 11.4643H13.5625V10.7143ZM12.8125 2.21429C12.8125 1.95787 12.6047 1.75 12.3483 1.75V0.25C13.4331 0.25 14.3125 1.12944 14.3125 2.21429H12.8125ZM12.3483 2.67857C12.6047 2.67857 12.8125 2.4707 12.8125 2.21429H14.3125C14.3125 3.29913 13.4331 4.17857 12.3483 4.17857V2.67857ZM16.5 4.17857H12.3483V2.67857H16.5V4.17857ZM18.75 6.42857C18.75 5.18593 17.7427 4.17857 16.5 4.17857V2.67857C18.5711 2.67857 20.25 4.3575 20.25 6.42857H18.75ZM18.75 9.5V6.42857H20.25V9.5H18.75ZM18.75 16V9.5H20.25V16H18.75ZM16.5 18.25C17.7427 18.25 18.75 17.2426 18.75 16H20.25C20.25 18.0711 18.5711 19.75 16.5 19.75V18.25ZM3.50005 18.25H16.5V19.75H3.50005V18.25ZM1.25005 16C1.25005 17.2426 2.25741 18.25 3.50005 18.25V19.75C1.42898 19.75 -0.249954 18.0711 -0.249954 16H1.25005ZM1.25005 9.5V16H-0.249954V9.5H1.25005ZM1.25005 6.42857V9.5H-0.249954V6.42857H1.25005ZM3.50005 4.17857C2.25741 4.17857 1.25005 5.18593 1.25005 6.42857H-0.249954C-0.249954 4.3575 1.42898 2.67857 3.50005 2.67857V4.17857ZM7.65183 4.17857H3.50005V2.67857H7.65183V4.17857ZM7.18755 2.21429C7.18755 2.4707 7.39541 2.67857 7.65183 2.67857V4.17857C6.56699 4.17857 5.68755 3.29913 5.68755 2.21429H7.18755ZM7.65183 1.75C7.39541 1.75 7.18755 1.95787 7.18755 2.21429H5.68755C5.68755 1.12944 6.56699 0.25 7.65183 0.25V1.75ZM12.3483 1.75H7.65183V0.25H12.3483V1.75ZM8.81255 11.4643H6.43755V9.96429H8.81255V11.4643ZM6.28727 11.4491L0.349773 10.2348L0.650319 8.76521L6.58782 9.97949L6.28727 11.4491ZM0.500046 8.75H9.81255V10.25H0.500046V8.75ZM9.81255 10.25C9.67448 10.25 9.56255 10.3619 9.56255 10.5H8.06255C8.06255 9.5335 8.84605 8.75 9.81255 8.75V10.25ZM9.56255 10.5V10.7143H8.06255V10.5H9.56255ZM11.1875 11.4643H8.81255V9.96429H11.1875V11.4643ZM9.56255 10.7143V12.1429H8.06255V10.7143H9.56255ZM9.56255 12.1429C9.56255 12.2809 9.67447 12.3929 9.81255 12.3929V13.8929C8.84605 13.8929 8.06255 13.1094 8.06255 12.1429H9.56255ZM9.81255 12.3929H10.1875V13.8929H9.81255V12.3929ZM10.1875 12.3929C10.3256 12.3929 10.4375 12.2809 10.4375 12.1429H11.9375C11.9375 13.1094 11.154 13.8929 10.1875 13.8929V12.3929ZM10.4375 12.1429V10.7143H11.9375V12.1429H10.4375ZM10.4375 10.5C10.4375 10.3619 10.3256 10.25 10.1875 10.25V8.75C11.154 8.75 11.9375 9.5335 11.9375 10.5H10.4375ZM10.4375 10.7143V10.5H11.9375V10.7143H10.4375ZM13.5625 11.4643H11.1875V9.96429H13.5625V11.4643ZM19.6503 10.2348L13.7128 11.4491L13.4123 9.97949L19.3498 8.76521L19.6503 10.2348ZM10.1875 8.75H19.5V10.25H10.1875V8.75Z" fill="#1D2069"/>
</svg>
