<svg width="52" height="40" viewBox="0 0 52 40" fill="none" xmlns="http://www.w3.org/2000/svg">
<rect width="52" height="40" rx="8" fill="#1D2069"/>
<path d="M21.0223 11.7106C20.0599 11.7106 19.4307 12.3425 19.4307 13.1732C19.4307 13.9855 20.0412 14.6355 20.9854 14.6355H21.0037C21.9849 14.6355 22.5956 13.9855 22.5956 13.1732C22.5773 12.3425 21.9849 11.7106 21.0223 11.7106V11.7106Z" fill="white"/>
<path d="M19.597 15.7915H22.4106V24.2563H19.597V15.7915Z" fill="white"/>
<path d="M29.3165 15.5931C27.7987 15.5931 26.7809 17.0194 26.7809 17.0194V15.7918H23.9673V24.2566H26.7808V19.5295C26.7808 19.2765 26.7991 19.0238 26.8735 18.8428C27.0769 18.3375 27.5397 17.814 28.317 17.814C29.3351 17.814 29.7423 18.5902 29.7423 19.7282V24.2566H32.5557V19.403C32.5557 16.803 31.1675 15.5931 29.3165 15.5931V15.5931Z" fill="white"/>
</svg>
