<svg width="34" height="34" viewBox="0 0 34 34" fill="none" xmlns="http://www.w3.org/2000/svg">
<path d="M11.3138 5.65685C14.438 2.53266 19.5034 2.53266 22.6276 5.65685L26.8702 9.89949C30.7754 13.8047 30.7754 20.1364 26.8702 24.0416L22.6276 28.2843C19.5034 31.4085 14.438 31.4085 11.3138 28.2843L7.07121 24.0416C3.16597 20.1364 3.16597 13.8047 7.07121 9.89949L11.3138 5.65685Z" fill="#3E42DF"/>
<path d="M17.0587 21.1507C18.8827 21.1507 20.0947 20.0827 20.0947 18.4867C20.0947 15.2707 15.8827 16.5907 15.8827 14.7787C15.8827 14.1427 16.3747 13.7827 17.0947 13.7827C17.8867 13.7827 18.4027 14.2267 18.5347 14.9347L20.0707 14.6587C19.8427 13.3027 18.7387 12.3907 17.1427 12.3907C15.4627 12.3907 14.2747 13.4227 14.2747 14.9107C14.2747 18.1387 18.4867 16.8067 18.4867 18.6667C18.4867 19.3267 17.9467 19.7707 17.1187 19.7707C16.3267 19.7707 15.6307 19.3507 15.4867 18.6307L13.9507 18.9547C14.2027 20.3227 15.5107 21.1507 17.0587 21.1507Z" fill="white"/>
<path d="M18.5347 14.9347L16.5686 15.3013L16.9328 17.2546L18.8884 16.9032L18.5347 14.9347ZM20.0707 14.6587L20.4244 16.6272L22.3709 16.2774L22.043 14.3271L20.0707 14.6587ZM15.4867 18.6307L17.4479 18.2385L17.0515 16.2566L15.0739 16.6738L15.4867 18.6307ZM13.9507 18.9547L13.5379 16.9978L11.6307 17.4001L11.9838 19.317L13.9507 18.9547ZM17.0587 23.1507C18.3535 23.1507 19.6141 22.7689 20.5807 21.9197C21.5705 21.0502 22.0947 19.8237 22.0947 18.4867H18.0947C18.0947 18.7457 18.0129 18.8512 17.9407 18.9147C17.8453 18.9985 17.5879 19.1507 17.0587 19.1507V23.1507ZM22.0947 18.4867C22.0947 17.1819 21.6378 16.0988 20.7775 15.3215C20.0189 14.636 19.1058 14.3441 18.5342 14.182C18.3111 14.1188 17.861 14.0034 17.7442 13.9714C17.5202 13.91 17.4189 13.8727 17.3754 13.8527C17.3309 13.8323 17.4715 13.885 17.6239 14.0751C17.8108 14.3081 17.8827 14.5788 17.8827 14.7787H13.8827C13.8827 15.4316 14.0863 16.0575 14.5035 16.5777C14.8863 17.0549 15.3559 17.3269 15.7063 17.4878C16.0576 17.6491 16.4171 17.7552 16.6866 17.8291C17.0634 17.9324 17.1398 17.9444 17.4432 18.0304C17.9247 18.1669 18.0646 18.2612 18.0957 18.2893C18.0962 18.2898 18.0902 18.2843 18.0823 18.2732C18.0741 18.2618 18.0697 18.2528 18.0687 18.2504C18.0655 18.2427 18.0947 18.3047 18.0947 18.4867H22.0947ZM17.8827 14.7787C17.8827 14.8812 17.8618 15.0318 17.7838 15.1992C17.7049 15.3686 17.5898 15.5071 17.4641 15.6072C17.2245 15.7978 17.0426 15.7827 17.0947 15.7827V11.7827C16.4268 11.7827 15.6389 11.9476 14.9733 12.4772C14.2528 13.0506 13.8827 13.8917 13.8827 14.7787H17.8827ZM17.0947 15.7827C17.1105 15.7827 16.9681 15.7818 16.7978 15.6428C16.6257 15.5024 16.5766 15.3443 16.5686 15.3013L20.5008 14.5681C20.3608 13.8171 19.9877 13.083 19.3266 12.5436C18.6673 12.0056 17.8709 11.7827 17.0947 11.7827V15.7827ZM18.8884 16.9032L20.4244 16.6272L19.717 12.6902L18.181 12.9662L18.8884 16.9032ZM22.043 14.3271C21.6336 11.8923 19.5931 10.3907 17.1427 10.3907V14.3907C17.557 14.3907 17.7783 14.5055 17.8812 14.5866C17.9767 14.6619 18.0627 14.7782 18.0984 14.9903L22.043 14.3271ZM17.1427 10.3907C15.8984 10.3907 14.689 10.7755 13.7611 11.5881C12.8136 12.4179 12.2747 13.5994 12.2747 14.9107H16.2747C16.2747 14.734 16.3299 14.6555 16.3963 14.5973C16.4824 14.5219 16.7071 14.3907 17.1427 14.3907V10.3907ZM12.2747 14.9107C12.2747 16.2164 12.7301 17.3001 13.5892 18.0793C14.3466 18.7662 15.2592 19.0601 15.8276 19.2237C15.9972 19.2725 16.5496 19.4196 16.6118 19.4371C16.8331 19.4995 16.9316 19.5372 16.9721 19.5564C17.0119 19.5753 16.8744 19.5209 16.7278 19.3325C16.5503 19.1047 16.4867 18.8473 16.4867 18.6667H20.4867C20.4867 18.0211 20.2914 17.3984 19.8837 16.8748C19.5067 16.3907 19.0402 16.11 18.685 15.9417C18.3307 15.7738 17.9685 15.6636 17.6962 15.5869C17.2648 15.4654 17.2907 15.4824 16.9338 15.3797C16.4492 15.2403 16.3088 15.1457 16.2764 15.1164C16.2757 15.1157 16.2814 15.1209 16.289 15.1315C16.2969 15.1425 16.3009 15.151 16.3016 15.1527C16.3042 15.159 16.2747 15.0951 16.2747 14.9107H12.2747ZM16.4867 18.6667C16.4867 18.5544 16.5109 18.4117 16.5813 18.2628C16.6517 18.1138 16.7507 17.9962 16.8531 17.9131C17.0527 17.7512 17.1915 17.7707 17.1187 17.7707V21.7707C17.874 21.7707 18.6967 21.5682 19.3733 21.0193C20.0866 20.4406 20.4867 19.5907 20.4867 18.6667H16.4867ZM17.1187 17.7707C17.0634 17.7707 17.0912 17.7544 17.1731 17.8092C17.2174 17.839 17.2771 17.8902 17.3326 17.9701C17.3898 18.0523 17.4294 18.1459 17.4479 18.2385L13.5255 19.0229C13.9177 20.9839 15.7245 21.7707 17.1187 21.7707V17.7707ZM15.0739 16.6738L13.5379 16.9978L14.3635 20.9116L15.8995 20.5876L15.0739 16.6738ZM11.9838 19.317C12.4662 21.9357 14.8895 23.1507 17.0587 23.1507V19.1507C16.6298 19.1507 16.3229 19.0348 16.1487 18.9155C15.9934 18.8092 15.9382 18.7042 15.9176 18.5924L11.9838 19.317Z" fill="white"/>
</svg>
