<svg width="16" height="16" viewBox="0 0 16 16" fill="none" xmlns="http://www.w3.org/2000/svg">
<rect x="0.65" y="0.65" width="14.7" height="14.7" rx="3.35" stroke="#1D2069" stroke-width="1.3" stroke-linecap="round" stroke-linejoin="round"/>
<path fill-rule="evenodd" clip-rule="evenodd" d="M8 5C7.58579 5 7.25 5.33579 7.25 5.75V7.25H5.75C5.33579 7.25 5 7.58579 5 8C5 8.41421 5.33579 8.75 5.75 8.75H7.25V10.25C7.25 10.6642 7.58579 11 8 11C8.41421 11 8.75 10.6642 8.75 10.25V8.75H10.25C10.6642 8.75 11 8.41421 11 8C11 7.58579 10.6642 7.25 10.25 7.25H8.75V5.75C8.75 5.33579 8.41421 5 8 5Z" fill="#1D2069"/>
</svg>
