<svg width="16" height="16" viewBox="0 0 16 16" fill="none" xmlns="http://www.w3.org/2000/svg">
<path fill-rule="evenodd" clip-rule="evenodd" d="M8.00298 1C7.19199 1 6.49676 1.57935 6.35052 2.37705L6.29785 2.66433C6.01499 2.75465 5.74189 2.86683 5.48056 2.9989L5.21405 2.82587C4.52837 2.38071 3.62477 2.47574 3.0467 3.05381C2.46994 3.63056 2.37388 4.53161 2.81608 5.217L2.99413 5.49298C2.87316 5.73419 2.76911 5.98536 2.68352 6.24492L2.37137 6.31131C1.57175 6.48138 1 7.18752 1 8.00503C1 8.82068 1.56921 9.52574 2.36653 9.69771L2.68743 9.76692C2.77877 10.0418 2.89085 10.3073 3.0218 10.5614L2.8534 10.8055C2.39276 11.4729 2.47469 12.3742 3.04815 12.9476C3.6216 13.5211 4.52286 13.603 5.19033 13.1424L5.43146 12.976C5.69152 13.1106 5.9635 13.2255 6.24538 13.3186L6.31131 13.6286C6.48138 14.4283 7.18752 15 8.00503 15C8.82068 15 9.52574 14.4308 9.69771 13.6335L9.766 13.3168C10.0426 13.2252 10.3096 13.1125 10.5652 12.9808L10.8055 13.1466C11.4729 13.6072 12.3742 13.5253 12.9476 12.9519C13.5211 12.3784 13.603 11.4771 13.1424 10.8097L12.9786 10.5723C13.1213 10.2967 13.2419 10.0077 13.3378 9.70771L13.623 9.65544C14.4206 9.50919 15 8.81397 15 8.00298C15 7.19199 14.4206 6.49676 13.623 6.35052L13.3398 6.29862C13.2492 6.01409 13.1365 5.73944 13.0036 5.47668L13.1741 5.21405C13.6193 4.52837 13.5243 3.62477 12.9462 3.0467C12.3694 2.46994 11.4684 2.37388 10.783 2.81608L10.5109 2.99162C10.254 2.8627 9.98575 2.75298 9.70811 2.66433L9.65544 2.37705C9.50919 1.57935 8.81397 1 8.00298 1ZM8 10.1C9.1598 10.1 10.1 9.1598 10.1 8C10.1 6.8402 9.1598 5.9 8 5.9C6.8402 5.9 5.9 6.8402 5.9 8C5.9 9.1598 6.8402 10.1 8 10.1Z" fill="#D8D8D8" fill-opacity="0.01"/>
<path d="M6.35052 2.37705L5.71118 2.25984V2.25984L6.35052 2.37705ZM6.29785 2.66433L6.49556 3.28353C6.72415 3.21054 6.89393 3.01756 6.9372 2.78154L6.29785 2.66433ZM5.48056 2.9989L5.12661 3.54408C5.32072 3.6701 5.56719 3.68341 5.77374 3.57903L5.48056 2.9989ZM5.21405 2.82587L4.8601 3.37105L5.21405 2.82587ZM3.0467 3.05381L3.50632 3.51343V3.51343L3.0467 3.05381ZM2.81608 5.217L3.36227 4.86461V4.86461L2.81608 5.217ZM2.99413 5.49298L3.57516 5.78436C3.67829 5.57872 3.66504 5.3339 3.54032 5.14059L2.99413 5.49298ZM2.68352 6.24492L2.81874 6.8807C3.04486 6.83261 3.22842 6.66803 3.30082 6.44848L2.68352 6.24492ZM2.37137 6.31131L2.23615 5.67553H2.23615L2.37137 6.31131ZM2.36653 9.69771L2.50357 9.06232H2.50357L2.36653 9.69771ZM2.68743 9.76692L3.30428 9.56198C3.23176 9.34371 3.0493 9.18002 2.82447 9.13153L2.68743 9.76692ZM3.0218 10.5614L3.55677 10.9307C3.69299 10.7333 3.70946 10.4769 3.59961 10.2637L3.0218 10.5614ZM2.8534 10.8055L3.38837 11.1747L3.38837 11.1747L2.8534 10.8055ZM3.04815 12.9476L2.58853 13.4073H2.58853L3.04815 12.9476ZM5.19033 13.1424L4.82113 12.6074L4.82113 12.6074L5.19033 13.1424ZM5.43146 12.976L5.73035 12.3988C5.51697 12.2883 5.26003 12.3045 5.06225 12.441L5.43146 12.976ZM6.24538 13.3186L6.88116 13.1834C6.83309 12.9574 6.66864 12.7739 6.44923 12.7014L6.24538 13.3186ZM6.31131 13.6286L6.94709 13.4934L6.31131 13.6286ZM9.69771 13.6335L9.06232 13.4964V13.4964L9.69771 13.6335ZM9.766 13.3168L9.56151 12.6998C9.34303 12.7723 9.17913 12.9548 9.13061 13.1798L9.766 13.3168ZM10.5652 12.9808L10.9344 12.4458C10.737 12.3096 10.4806 12.2931 10.2674 12.403L10.5652 12.9808ZM10.8055 13.1466L11.1747 12.6116L11.1747 12.6116L10.8055 13.1466ZM13.1424 10.8097L13.6774 10.4405H13.6774L13.1424 10.8097ZM12.9786 10.5723L12.4014 10.2733C12.2909 10.4867 12.3071 10.7437 12.4436 10.9415L12.9786 10.5723ZM13.3378 9.70771L13.2206 9.06837C12.9847 9.11162 12.7918 9.28126 12.7187 9.5097L13.3378 9.70771ZM13.623 9.65544L13.5057 9.01609L13.623 9.65544ZM13.623 6.35052L13.7402 5.71118L13.623 6.35052ZM13.3398 6.29862L12.7205 6.49589C12.7934 6.72468 12.9865 6.89466 13.2226 6.93796L13.3398 6.29862ZM13.0036 5.47668L12.4584 5.12273C12.3324 5.31687 12.3191 5.56339 12.4235 5.76996L13.0036 5.47668ZM13.1741 5.21405L13.7193 5.56799V5.56799L13.1741 5.21405ZM12.9462 3.0467L13.4058 2.58708V2.58708L12.9462 3.0467ZM10.783 2.81608L11.1354 3.36227V3.36227L10.783 2.81608ZM10.5109 2.99162L10.2194 3.57259C10.4251 3.67578 10.67 3.66254 10.8633 3.53781L10.5109 2.99162ZM9.70811 2.66433L9.06876 2.78154C9.11203 3.01756 9.28181 3.21054 9.51039 3.28353L9.70811 2.66433ZM9.65544 2.37705L9.01609 2.49426V2.49426L9.65544 2.37705ZM6.98986 2.49426C7.07953 2.0052 7.50576 1.65 8.00298 1.65V0.35C6.87821 0.35 5.914 1.15351 5.71118 2.25984L6.98986 2.49426ZM6.9372 2.78154L6.98986 2.49426L5.71118 2.25984L5.65851 2.54711L6.9372 2.78154ZM5.77374 3.57903C6.00462 3.46235 6.24581 3.36327 6.49556 3.28353L6.10014 2.04513C5.78417 2.14602 5.47917 2.27132 5.18738 2.41878L5.77374 3.57903ZM4.8601 3.37105L5.12661 3.54408L5.83451 2.45373L5.56799 2.2807L4.8601 3.37105ZM3.50632 3.51343C3.86739 3.15235 4.43181 3.09299 4.8601 3.37105L5.56799 2.2807C4.62493 1.66843 3.38214 1.79913 2.58708 2.59419L3.50632 3.51343ZM3.36227 4.86461C3.08606 4.4365 3.14606 3.87368 3.50632 3.51343L2.58708 2.59419C1.79383 3.38744 1.6617 4.62672 2.26989 5.56938L3.36227 4.86461ZM3.54032 5.14059L3.36227 4.86461L2.26989 5.56938L2.44794 5.84537L3.54032 5.14059ZM3.30082 6.44848C3.37639 6.2193 3.46829 5.99747 3.57516 5.78436L2.4131 5.20159C2.27804 5.47092 2.16182 5.75143 2.06621 6.04136L3.30082 6.44848ZM2.50659 6.94709L2.81874 6.8807L2.5483 5.60914L2.23615 5.67553L2.50659 6.94709ZM1.65 8.00503C1.65 7.49439 2.00713 7.05332 2.50659 6.94709L2.23615 5.67553C1.13637 5.90944 0.35 6.88064 0.35 8.00503H1.65ZM2.50357 9.06232C2.00554 8.9549 1.65 8.5145 1.65 8.00503H0.35C0.35 9.12685 1.13288 10.0966 2.22949 10.3331L2.50357 9.06232ZM2.82447 9.13153L2.50357 9.06232L2.22949 10.3331L2.5504 10.4023L2.82447 9.13153ZM3.59961 10.2637C3.48391 10.0392 3.38493 9.80472 3.30428 9.56198L2.07059 9.97186C2.17262 10.279 2.29779 10.5754 2.44399 10.8592L3.59961 10.2637ZM3.38837 11.1747L3.55677 10.9307L2.48683 10.1922L2.31844 10.4363L3.38837 11.1747ZM3.50777 12.488C3.15618 12.1364 3.10595 11.5839 3.38837 11.1747L2.31844 10.4363C1.67956 11.362 1.7932 12.6119 2.58853 13.4073L3.50777 12.488ZM4.82113 12.6074C4.41191 12.8898 3.85935 12.8396 3.50777 12.488L2.58853 13.4073C3.38386 14.2026 4.63382 14.3162 5.55953 13.6774L4.82113 12.6074ZM5.06225 12.441L4.82113 12.6074L5.55953 13.6774L5.80066 13.5109L5.06225 12.441ZM6.44923 12.7014C6.20034 12.6192 5.96013 12.5178 5.73035 12.3988L5.13256 13.5532C5.42292 13.7035 5.72665 13.8318 6.04153 13.9358L6.44923 12.7014ZM6.94709 13.4934L6.88116 13.1834L5.6096 13.4539L5.67553 13.7638L6.94709 13.4934ZM8.00503 14.35C7.49439 14.35 7.05332 13.9929 6.94709 13.4934L5.67553 13.7638C5.90944 14.8636 6.88064 15.65 8.00503 15.65V14.35ZM9.06232 13.4964C8.9549 13.9945 8.5145 14.35 8.00503 14.35V15.65C9.12685 15.65 10.0966 14.8671 10.3331 13.7705L9.06232 13.4964ZM9.13061 13.1798L9.06232 13.4964L10.3331 13.7705L10.4014 13.4539L9.13061 13.1798ZM10.2674 12.403C10.0416 12.5194 9.80573 12.6189 9.56151 12.6998L9.97048 13.9338C10.2794 13.8314 10.5777 13.7056 10.863 13.5585L10.2674 12.403ZM11.1747 12.6116L10.9344 12.4458L10.196 13.5157L10.4363 13.6816L11.1747 12.6116ZM12.488 12.4922C12.1364 12.8438 11.5839 12.8941 11.1747 12.6116L10.4363 13.6816C11.362 14.3204 12.6119 14.2068 13.4073 13.4115L12.488 12.4922ZM12.6074 11.1789C12.8898 11.5881 12.8396 12.1406 12.488 12.4922L13.4073 13.4115C14.2026 12.6161 14.3162 11.3662 13.6774 10.4405L12.6074 11.1789ZM12.4436 10.9415L12.6074 11.1789L13.6774 10.4405L13.5135 10.2031L12.4436 10.9415ZM12.7187 9.5097C12.634 9.77456 12.5275 10.0298 12.4014 10.2733L13.5557 10.8713C13.7151 10.5636 13.8498 10.2408 13.9569 9.90572L12.7187 9.5097ZM13.5057 9.01609L13.2206 9.06837L13.455 10.3471L13.7402 10.2948L13.5057 9.01609ZM14.35 8.00298C14.35 8.50019 13.9948 8.92643 13.5057 9.01609L13.7402 10.2948C14.8465 10.092 15.65 9.12775 15.65 8.00298H14.35ZM13.5057 6.98986C13.9948 7.07953 14.35 7.50576 14.35 8.00298H15.65C15.65 6.87821 14.8465 5.914 13.7402 5.71118L13.5057 6.98986ZM13.2226 6.93796L13.5057 6.98986L13.7402 5.71118L13.4571 5.65927L13.2226 6.93796ZM12.4235 5.76996C12.5409 6.0021 12.6405 6.24467 12.7205 6.49589L13.9592 6.10134C13.8579 5.78351 13.732 5.47677 13.5837 5.18339L12.4235 5.76996ZM12.6289 4.8601L12.4584 5.12273L13.5488 5.83063L13.7193 5.56799L12.6289 4.8601ZM12.4866 3.50632C12.8476 3.86739 12.907 4.43181 12.6289 4.8601L13.7193 5.56799C14.3316 4.62493 14.2009 3.38214 13.4058 2.58708L12.4866 3.50632ZM11.1354 3.36227C11.5635 3.08606 12.1263 3.14606 12.4866 3.50632L13.4058 2.58708C12.6126 1.79383 11.3733 1.6617 10.4306 2.26989L11.1354 3.36227ZM10.8633 3.53781L11.1354 3.36227L10.4306 2.26989L10.1585 2.44543L10.8633 3.53781ZM9.51039 3.28353C9.75554 3.3618 9.99243 3.4587 10.2194 3.57259L10.8024 2.41064C10.5155 2.2667 10.216 2.14416 9.90582 2.04513L9.51039 3.28353ZM9.01609 2.49426L9.06876 2.78154L10.3474 2.54711L10.2948 2.25984L9.01609 2.49426ZM8.00298 1.65C8.50019 1.65 8.92643 2.0052 9.01609 2.49426L10.2948 2.25984C10.092 1.15351 9.12775 0.35 8.00298 0.35V1.65ZM9.45 8C9.45 8.80081 8.80081 9.45 8 9.45V10.75C9.51878 10.75 10.75 9.51878 10.75 8H9.45ZM8 6.55C8.80081 6.55 9.45 7.19919 9.45 8H10.75C10.75 6.48122 9.51878 5.25 8 5.25V6.55ZM6.55 8C6.55 7.19919 7.19919 6.55 8 6.55V5.25C6.48122 5.25 5.25 6.48122 5.25 8H6.55ZM8 9.45C7.19919 9.45 6.55 8.80081 6.55 8H5.25C5.25 9.51878 6.48122 10.75 8 10.75V9.45Z" fill="#1D2069"/>
</svg>
