<svg width="52" height="40" viewBox="0 0 52 40" fill="none" xmlns="http://www.w3.org/2000/svg">
<rect width="52" height="40" rx="8" fill="#1D2069"/>
<path d="M16.3497 25.21C18.5477 25.21 20.0037 23.922 20.0037 22.018C20.0037 18.224 15.2577 19.694 15.2577 17.846C15.2577 17.244 15.7057 16.894 16.4197 16.894C17.1897 16.894 17.6797 17.314 17.8337 18.042L19.9757 17.664C19.6817 16.04 18.3657 14.99 16.4757 14.99C14.4317 14.99 13.0037 16.25 13.0037 18.056C13.0037 21.85 17.7357 20.394 17.7357 22.27C17.7357 22.9 17.2317 23.32 16.4337 23.32C15.5937 23.32 14.9217 22.83 14.7677 22.144L12.6257 22.578C12.9617 24.188 14.4457 25.21 16.3497 25.21Z" fill="white"/>
<path d="M24.6212 25.21C26.8192 25.21 28.2752 23.922 28.2752 22.018C28.2752 18.224 23.5292 19.694 23.5292 17.846C23.5292 17.244 23.9772 16.894 24.6912 16.894C25.4612 16.894 25.9512 17.314 26.1052 18.042L28.2472 17.664C27.9532 16.04 26.6372 14.99 24.7472 14.99C22.7032 14.99 21.2752 16.25 21.2752 18.056C21.2752 21.85 26.0072 20.394 26.0072 22.27C26.0072 22.9 25.5032 23.32 24.7052 23.32C23.8652 23.32 23.1932 22.83 23.0392 22.144L20.8972 22.578C21.2332 24.188 22.7172 25.21 24.6212 25.21Z" fill="white"/>
<path d="M39.3187 20.1C39.3187 17.16 37.1767 14.99 34.2647 14.99C31.3667 14.99 29.2247 17.16 29.2247 20.1C29.2247 23.04 31.3667 25.21 34.2647 25.21C37.1767 25.21 39.3187 23.04 39.3187 20.1ZM37.0507 20.1C37.0507 21.864 35.8607 23.138 34.2647 23.138C32.6967 23.138 31.4927 21.864 31.4927 20.1C31.4927 18.322 32.6967 17.048 34.2647 17.048C35.8607 17.048 37.0507 18.322 37.0507 20.1Z" fill="white"/>
</svg>
